# xmcd
#
# Track frame offsets: 
#        150
#        18081
#        30140
#        45854
#        65087
#        87048
#        104264
#        119993
#        142352
#        157652
#        178909
#        196837
#        209288
#        227161
#        243557
#        261614
#        277656
#        294784
#
# Disc length: 4229 seconds
#
# Revision: 0
# Processed by: cddbd v1.5.2PL0 Copyright (c) Steve Scherf et al.
# Submitted via: ExactAudioCopy v1.2
#
DISCID=f8108312
DTITLE=Charlie Landsborough - Nothing Lasts Forever
DYEAR=2009
DGENRE=Country
TTITLE0=Rolling Uphill
TTITLE1=Welcome To My World
TTITLE2=Gotta Get Back
TTITLE3=Nothing Lasts Forever
TTITLE4=Song For The Mira
TTITLE5=Gonna Be Alright Now
TTITLE6=Another Goodbye
TTITLE7=Turned To Stone
TTITLE8=And I Love You So
TTITLE9=The Final Bow
TTITLE10=You're Dear To Me
TTITLE11=Take These Chains
TTITLE12=Australia In My Heart
TTITLE13=Let It Be Me
TTITLE14=Look Back And Smile
TTITLE15=Right Road Now
TTITLE16=Help Me Make It Through The Night
TTITLE17=Here I Am
EXTD=
EXTT0=
EXTT1=
EXTT2=
EXTT3=
EXTT4=
EXTT5=
EXTT6=
EXTT7=
EXTT8=
EXTT9=
EXTT10=
EXTT11=
EXTT12=
EXTT13=
EXTT14=
EXTT15=
EXTT16=
EXTT17=
PLAYORDER=
